<svg id="Capa_1" enable-background="new 0 0 512 512" height="512" viewBox="0 0 512 512" width="512" xmlns="http://www.w3.org/2000/svg"><g><path fill="#ffffff" d="m390.23 201.545c-3.553-2.147-8.173-1.008-10.321 2.543-2.148 3.552-1.01 8.174 2.543 10.321 12.937 7.822 34.922 23.828 36.813 43.135.998 10.183-2.723 20.579-9.952 27.809-7.445 7.445-17.732 11.053-28.223 9.899-2.268-.251-4.524.544-6.136 2.157-1.612 1.612-2.406 3.87-2.156 6.136 1.154 10.491-2.455 20.778-9.899 28.223-7.23 7.229-17.63 10.952-27.809 9.952-7.419-.729-14.217-4.45-19.986-8.996-19.69-15.514-31.92-40.828-40.049-63.925-8.35-23.726-13.57-48.989-13.54-74.199l36.725 36.725c1.468 1.468 3.391 2.202 5.315 2.202s3.847-.734 5.315-2.202c2.936-2.935 2.936-7.694 0-10.629l-36.717-36.717c35.083-.058 67.047 10.644 80.372 15.798 3.87 1.495 8.224-.428 9.722-4.298 1.498-3.872-.427-8.224-4.298-9.722-5.021-1.942-12.538-4.624-21.814-7.275 16.593-4.757 27.572-9.643 28.975-10.281 19.687-8.49 65.648-31.989 69.116-67.37 1.431-14.611-3.908-29.529-14.284-39.905-8.66-8.66-19.994-13.704-31.99-14.425-.721-11.995-5.765-23.33-14.425-31.99-10.376-10.374-25.297-15.711-39.904-14.282-35.382 3.467-58.88 49.429-67.37 69.116-.636 1.4-5.505 12.337-10.253 28.875-4.748-16.537-9.618-27.475-10.254-28.875-8.491-19.687-31.989-65.648-67.37-69.116-14.609-1.431-29.529 3.908-39.905 14.284-8.659 8.66-13.703 19.995-14.425 31.99-11.995.721-23.33 5.765-31.99 14.425-10.374 10.374-15.714 25.292-14.282 39.903 3.467 35.382 49.429 58.88 69.116 67.37 1.4.636 12.338 5.505 28.875 10.254-16.535 4.748-27.474 9.616-28.875 10.253-19.687 8.49-65.648 31.989-69.116 67.37-1.432 14.612 3.908 29.529 14.284 39.905 8.66 8.66 19.994 13.704 31.99 14.425.721 11.995 5.765 23.33 14.425 31.99 9.264 9.264 22.147 14.513 35.202 14.513 1.567 0 3.137-.076 4.703-.229 20.851-2.043 37.573-18.845 49.53-36.329-.554 22.784.138 48.286 3.423 73.901.528 4.117 4.291 7.025 8.411 6.499 4.117-.528 7.027-4.294 6.499-8.411-4.733-36.904-3.932-73.61-1.836-101.729.482-1.071.931-2.09 1.343-3.045.636-1.4 5.503-12.349 10.251-28.893 3.571 12.443 7.21 21.716 9.066 26.146-1.18 13.719-2.122 30.038-2.201 47.625-.289 64.948 10.857 115.082 33.128 149.011 1.468 2.236 1.977 4.91 1.434 7.529s-2.074 4.87-4.311 6.339c-1.638 1.076-3.534 1.644-5.48 1.645-3.394 0-6.53-1.69-8.388-4.521-11.843-18.042-20.95-40.492-27.068-66.727-.943-4.042-4.982-6.554-9.027-5.613-4.043.943-6.556 4.984-5.613 9.027 6.521 27.962 16.325 52.039 29.141 71.563 4.647 7.08 12.481 11.306 20.957 11.305 11.815-.001 22.083-8.265 24.509-19.964 1.359-6.551.085-13.239-3.587-18.831-20.332-30.973-30.935-79.624-30.662-140.694.032-7.292.218-14.348.507-21.079-.352 8.201 18.327 25.239 24.012 30.25 20.586 18.144 50.45 21.38 71.114.715 8.659-8.66 13.703-19.995 14.425-31.989 11.995-.721 23.33-5.765 31.99-14.425 10.376-10.376 15.715-25.294 14.284-39.905-1.906-19.426-17.12-38.284-43.999-54.537zm-110.269-126.029c.023-.05.045-.101.067-.152 15.43-35.813 36.014-58.308 55.062-60.175 10.178-1.002 20.579 2.722 27.809 9.952 7.444 7.445 11.053 17.732 9.899 28.223-.249 2.267.544 4.524 2.156 6.136 1.612 1.613 3.868 2.407 6.136 2.157 10.493-1.154 20.778 2.454 28.223 9.899 7.229 7.23 10.95 17.626 9.952 27.809-1.866 19.048-24.362 39.632-60.175 55.062-.051.022-.101.044-.152.067-.358.164-25.743 11.59-58.914 16.373-7.657-1.028-15.696-1.707-23.937-1.87l32.782-32.782c2.936-2.935 2.936-7.694 0-10.629-2.935-2.935-7.694-2.935-10.629 0l-32.758 32.758c-.155-8.3-.829-16.384-1.861-24.073 4.803-33.057 16.178-58.4 16.34-58.755zm-47.921 205.878c-.023.05-.045.101-.067.152-15.43 35.813-36.014 58.308-55.062 60.175-10.185.998-20.58-2.722-27.809-9.952-7.444-7.445-11.053-17.732-9.899-28.223.249-2.267-.544-4.524-2.156-6.136-1.417-1.417-3.332-2.202-5.314-2.202-.273 0-.548.015-.822.045-10.492 1.155-20.778-2.454-28.223-9.899-7.229-7.229-10.95-17.625-9.952-27.809 1.866-19.048 24.362-39.632 60.175-55.062.051-.021.101-.044.152-.067.357-.164 25.627-11.544 58.688-16.346 7.706 1.036 15.802 1.728 24.122 1.884l-32.742 32.742c-2.936 2.935-2.936 7.694 0 10.629 1.468 1.468 3.391 2.202 5.315 2.202s3.847-.734 5.315-2.202l32.76-32.76c.156 8.296.831 16.377 1.861 24.063-4.801 33.065-16.181 58.411-16.342 58.766zm-18.281-155.809c-2.935-2.935-7.694-2.935-10.629 0-2.936 2.935-2.936 7.694 0 10.629l36.722 36.722c-45.642.036-86.34-18.237-86.791-18.442-.05-.023-.101-.045-.152-.067-35.813-15.43-58.308-36.014-60.175-55.062-.998-10.184 2.723-20.58 9.952-27.809 6.533-6.532 15.252-10.11 24.378-10.11 1.275 0 2.559.07 3.844.211 2.268.25 4.524-.544 6.136-2.157 1.612-1.612 2.406-3.87 2.156-6.136-1.154-10.491 2.455-20.778 9.899-28.223 7.23-7.23 17.628-10.953 27.809-9.952 19.048 1.866 39.632 24.362 55.062 60.175.022.051.044.101.067.152.207.453 18.502 41.061 18.446 86.796z"/></g></svg>