<svg id="Capa_1" enable-background="new 0 0 494.94 494.94" height="512" viewBox="0 0 494.94 494.94" width="512" xmlns="http://www.w3.org/2000/svg"><g><path d="m251.182.994c-2.289-1.326-5.135-1.326-7.423 0-31.682 18.351-47.375 55.818-37.809 91.52l14.956 55.816h53.129l14.956-55.816c9.566-35.702-6.127-73.169-37.809-91.52z" fill="#ffba48"/><path d="m243.758.994c-31.678 18.35-47.372 55.814-37.808 91.516l-15.04 55.82h113.125l-15.045-55.82c9.563-35.702-6.13-73.166-37.808-91.516-2.289-1.325-5.135-1.325-7.424 0z" fill="#ff9a42"/><path d="m247.47 28.97c-24.35 12.48-38.96 37.36-38.96 63.71 0 5.95.75 11.98 2.3 17.96l-19.9 37.69h113.12l-19.9-37.69c1.55-5.98 2.3-12.01 2.3-17.96 0-26.35-14.61-51.23-38.96-63.71z" fill="#ffba48"/><path d="m121.018 35.872c-18.259 31.73-13.118 72.022 13.015 98.159l14.885 55.862 61.886-79.25-4.856-18.131c-9.569-35.7-41.892-60.298-78.501-60.351-2.645-.005-5.11 1.418-6.429 3.711z" fill="#ffba48"/><path d="m138.22 58.244c-14.848 22.983-15.06 51.835-1.885 74.654 2.975 5.153 6.64 10 10.972 14.404l1.611 42.591 71.984-41.56-10.098-37.69c-1.648-5.954-4.013-11.551-6.988-16.704-13.176-22.821-38.268-37.063-65.596-35.695z" fill="#ffd185"/><path d="m32.16 127.447c.052 36.609 24.65 68.932 60.351 78.501l40.822 40.935 13.969-99.576-13.271-13.274c-26.137-26.133-66.429-31.274-98.159-13.015-2.293 1.319-3.716 3.784-3.712 6.429z" fill="#ff9a42"/><path d="m58.244 138.22c-1.367 27.328 12.875 52.42 35.695 65.595 5.153 2.975 10.75 5.34 16.704 6.988l22.69 36.079 41.56-71.984-27.591-27.592c-4.404-4.332-9.251-7.997-14.404-10.972-22.82-13.174-51.671-12.962-74.654 1.886z" fill="#ffba48"/><path d="m.994 251.182c18.35 31.678 55.814 47.372 91.516 37.808l55.82 15.04-37.69-93.22-18.13-4.86c-35.702-9.563-73.166 6.13-91.516 37.808-1.325 2.289-1.325 5.135 0 7.424z" fill="#ffba48"/><path d="m28.97 247.47c12.48 24.35 37.36 38.96 63.71 38.96 5.95 0 11.98-.75 17.96-2.3l37.69 19.9v-83.12l-37.69-10.1c-5.98-1.55-12.01-2.3-17.96-2.3-26.35 0-51.23 14.61-63.71 38.96z" fill="#ffd185"/><path d="m35.872 373.923c31.73 18.259 72.022 13.118 98.159-13.015l55.862-14.885-79.25-61.886-18.131 4.856c-35.7 9.569-60.298 41.892-60.351 78.501-.005 2.644 1.418 5.109 3.711 6.429z" fill="#ff9a42"/><path d="m58.244 356.72c22.983 14.848 51.835 15.06 74.654 1.885 5.153-2.975 10-6.639 14.404-10.972l42.591-1.611-41.56-71.984-37.69 10.098c-5.954 1.648-11.551 4.013-16.704 6.988-22.821 13.176-37.063 38.268-35.695 65.596z" fill="#ffba48"/><path d="m127.447 462.78c36.609-.052 68.932-24.65 78.501-60.351l40.935-40.822-99.576-13.969-13.274 13.271c-26.133 26.137-31.274 66.429-13.015 98.159 1.319 2.293 3.784 3.716 6.429 3.712z" fill="#ffba48"/><path d="m138.22 436.697c27.328 1.367 52.42-12.875 65.595-35.695 2.975-5.153 5.34-10.75 6.988-16.704l36.079-22.69-71.984-41.56-27.592 27.591c-4.332 4.404-7.997 9.251-10.972 14.404-13.174 22.819-12.962 51.671 1.886 74.654z" fill="#ffd185"/><path d="m251.182 493.946c31.678-18.35 47.372-55.814 37.808-91.516l15.04-55.82-93.22 37.69-4.86 18.13c-9.563 35.702 6.13 73.166 37.808 91.516 2.289 1.326 5.135 1.326 7.424 0z" fill="#ff9a42"/><path d="m247.47 465.97c24.35-12.48 38.96-37.36 38.96-63.71 0-5.95-.75-11.98-2.3-17.96l19.9-37.69h-83.12l-10.1 37.69c-1.55 5.98-2.3 12.01-2.3 17.96 0 26.35 14.61 51.23 38.96 63.71z" fill="#ffba48"/><path d="m373.923 459.068c18.259-31.73 13.118-72.022-13.015-98.159l-14.885-55.862-61.886 79.25 4.856 18.131c9.569 35.7 41.892 60.298 78.501 60.351 2.644.005 5.109-1.418 6.429-3.711z" fill="#ffba48"/><path d="m356.72 436.697c14.848-22.983 15.06-51.835 1.885-74.654-2.975-5.153-6.64-10-10.972-14.404l-1.611-42.591-71.984 41.56 10.098 37.69c1.648 5.954 4.013 11.551 6.988 16.704 13.176 22.82 38.268 37.062 65.596 35.695z" fill="#ffd185"/><path d="m462.78 367.493c-.052-36.609-24.65-68.932-60.351-78.501l-40.822-40.935-13.969 99.576 13.271 13.274c26.137 26.133 66.429 31.274 98.159 13.015 2.293-1.319 3.716-3.784 3.712-6.429z" fill="#ff9a42"/><path d="m436.697 356.72c1.367-27.328-12.875-52.42-35.695-65.595-5.153-2.975-10.75-5.34-16.704-6.988l-22.69-36.079-41.56 71.984 27.591 27.592c4.404 4.332 9.251 7.997 14.404 10.972 22.819 13.174 51.671 12.962 74.654-1.886z" fill="#ffba48"/><path d="m493.946 243.758c-18.35-31.678-55.814-47.372-91.516-37.808l-55.82-15.04 37.69 93.22 18.13 4.86c35.702 9.563 73.166-6.13 91.516-37.808 1.326-2.289 1.326-5.135 0-7.424z" fill="#ffba48"/><path d="m465.97 247.47c-12.48-24.35-37.36-38.96-63.71-38.96-5.95 0-11.98.75-17.96 2.3l-37.69-19.9v83.12l37.69 10.1c5.98 1.55 12.01 2.3 17.96 2.3 26.35 0 51.23-14.61 63.71-38.96z" fill="#ffd185"/><path d="m459.068 121.018c-31.73-18.259-72.022-13.118-98.159 13.015l-55.862 14.885 79.25 61.886 18.131-4.856c35.7-9.569 60.298-41.892 60.351-78.501.005-2.645-1.418-5.11-3.711-6.429z" fill="#ff9a42"/><path d="m436.697 138.22c-22.983-14.848-51.835-15.06-74.654-1.885-5.153 2.975-10 6.64-14.404 10.972l-42.591 1.611 41.56 71.984 37.69-10.098c5.954-1.648 11.551-4.013 16.704-6.988 22.82-13.176 37.062-38.268 35.695-65.596z" fill="#ffba48"/><path d="m373.923 35.872c-1.319-2.292-3.784-3.716-6.429-3.712-36.609.052-68.932 24.65-78.501 60.351l-4.863 18.129 63.504 36.662 13.274-13.271c26.133-26.137 31.274-66.429 13.015-98.159z" fill="#ffba48"/><path d="m356.72 58.244c-27.328-1.367-52.42 12.875-65.595 35.695-2.975 5.153-5.34 10.75-6.988 16.704l-10.102 37.688 46.007 26.562 27.592-27.591c4.332-4.404 7.997-9.251 10.972-14.404 13.174-22.82 12.962-51.671-1.886-74.654z" fill="#ffd185"/><path d="m357.97 247.47c0-10.449-4.371-19.861-11.36-26.564 2.701-9.3 1.78-19.636-3.444-28.686-5.224-9.049-13.716-15.015-23.12-17.326-2.311-9.405-8.277-17.896-17.326-23.12s-19.385-6.145-28.686-3.444c-6.704-6.989-16.115-11.36-26.564-11.36s-19.861 4.371-26.564 11.36c-9.3-2.701-19.636-1.78-28.686 3.444-9.049 5.225-15.015 13.716-17.326 23.12-9.405 2.311-17.896 8.277-23.12 17.326s-6.145 19.385-3.444 28.686c-6.989 6.704-11.36 16.115-11.36 26.564s4.371 19.861 11.36 26.564c-2.701 9.3-1.78 19.636 3.444 28.686 5.225 9.049 13.716 15.015 23.12 17.326 2.311 9.405 8.277 17.896 17.326 23.12s19.385 6.145 28.686 3.444c6.704 6.989 16.115 11.36 26.564 11.36s19.861-4.371 26.564-11.36c9.3 2.701 19.636 1.78 28.686-3.444 9.049-5.225 15.015-13.716 17.326-23.12 9.405-2.311 17.896-8.277 23.12-17.326 5.225-9.049 6.145-19.385 3.444-28.686 6.989-6.703 11.36-16.115 11.36-26.564z" fill="#913721"/><circle cx="247.47" cy="247.47" fill="#e76c38" r="75"/><circle cx="221.489" cy="232.47" fill="#c75b31" r="15"/><circle cx="273.451" cy="232.47" fill="#c75b31" r="15"/><circle cx="221.489" cy="262.47" fill="#ad4c2d" r="15"/><circle cx="247.47" cy="277.47" fill="#c75b31" r="15"/><circle cx="273.451" cy="262.47" fill="#ad4c2d" r="15"/><circle cx="247.47" cy="217.47" fill="#ad4c2d" r="15"/><circle cx="247.47" cy="247.47" fill="#913721" r="15"/></g></svg>